<svg fill="#fff" xmlns="http://www.w3.org/2000/svg" viewBox="0 0 188.429 188.429" xml:space="preserve" stroke="#fff">
  <path d="M54.432 1.908C40.773-2.799 22.472 3.006 8.598 4.462c-3.204.336-5.53 2.868-4.729 6.208.566 2.36 1.086 4.647 1.699 6.913-3.781 12.93-.048 29.963 1.026 42.006C8.02 75.582 8.43 91.468 8.886 107.498c.445 15.648 1.028 31.294 1.756 46.933.284 6.093-1.251 17.271 3.728 22.121.269.262.574.468.898.626-.714 1.561-.638 3.405.954 4.727 9.15 7.59 29.76 2.065 40.419.712 2.815-.356 5.02-2.051 5.098-5.098 1.294-50.358.442-100.95 1.004-151.279.078-6.929.101-21.431-8.311-24.332zm-3.308 47.42c-.027.344-.033.688-.06 1.029-5.506-1.271-12.326.144-17.881.512-5.597.37-11.465.598-16.976 1.812-.187-4.123-.333-8.283-.503-12.444.216.272.449.524.707.72 3.737 2.851 12.698 1.721 17.146 1.779 6.081.081 12.273.247 18.34-.413-.326 2.866-.639 5.322-.773 7.005zm1.717-23.164c.064 1.965.021 3.998-.076 6.022-6.369.665-12.815.827-19.208 1.133-5.114.245-13.573-.679-17.796 2.596-.094.073-.15.16-.229.239-.185-3.87-.409-7.729-.75-11.544 12.291 3.02 25.423 1.525 38.059 1.554zm-26.182 132.76c-1.086.118-4.193.182-6.753.818-.093-2.121-.195-4.237-.268-6.367.229-.038.442-.007.68-.093 9.23-3.346 21.192-2.272 31.173-2.153.035 2.014.05 4.025.074 6.038-8.3.306-16.651.85-24.906 1.757zM118.408 8.165c-.066-2.738-2.372-5.522-5.315-5.314-12.143.855-24.178.552-36.146 2.947-2.106.421-3.673 2.693-3.632 4.77.674 33.887-3.964 67.689-3.493 101.531.258 18.503 7.298 46.104-1.149 63.326-1.184 2.412.368 5.185 2.443 6.116-.366 1.521-.066 3.148 1.315 4.295 8.112 6.729 32.735-1.73 41.863-2.024 2.777-.09 5.085-2.248 5.091-5.091.12-56.846.387-113.723-.977-170.556zM82.332 31.048c4.827-.216 9.582-.528 14.34-.195 2.633.437 5.274.831 7.905 1.28 1.349.229 2.52-.05 3.482-.611.041 3.044.062 6.089.102 9.133-4.877-.23-9.758-.351-14.643-.299-3.029.032-8.2-.403-11.714.928.18-3.415.36-6.828.528-10.236zm-.911 17.482c3.742 1.177 9.482.283 13.25.545 4.53.315 9.055.804 13.593.981.02 1.603.022 3.207.04 4.81-8.878-.533-19.168-.594-27.318 1.999.141-2.777.287-5.556.435-8.335zm1.642 108.298c-.532.251-.858.603-1.1.982.201-4.055.093-8.218-.141-12.325 2.486.289 4.984.495 7.499.591.79.757 1.822 1.295 3.07 1.392 5.253.402 10.637-.727 15.896-.881.266-.009.504-.059.749-.099.013 3.207.043 6.413.054 9.62-8.018-1.43-18.507-2.827-26.027.72zM184.208 88.062c-.127-15.133-.774-30.274-1.374-45.395-.377-9.485 2.153-22.801-3.234-31.459-9.904-15.923-29.798-12.102-44.614-5.496-7.543 3.362-7.421 17.852-7.986 24.976-1.568 19.753-1.171 39.749-1.086 59.545.092 21.487.497 42.971 1.252 64.445.221 6.281-1.306 18.515 5.103 22.565.056.035.13.028.189.058.485 2.031 2.026 3.848 4.658 4.054 9.622.756 32.42 5.499 38.267-5.815 12.152-23.515 9.038-62.119 8.825-87.478zm-47.119-54.776c.096-1.839.176-3.562.281-5.189 1.527 1.148 3.497 1.529 5.505 1.795 8.805 1.161 17.827-.042 26.669.037 1.393.013 2.425-.496 3.209-1.216.57 3.137.884 6.496 1.043 9.921-.649-.326-1.35-.562-2.136-.569-11.499-.11-23.232-1.285-34.722-.282.058-1.496.073-3.009.151-4.497zm-.421 12.53c11.561 1.325 23.379 1.772 34.991 2.09.837.023 1.572-.24 2.246-.611-.023 2.035-.073 4.036-.129 5.993-5.538-2.603-13.067-1.197-18.938-.843-6.021.364-12.161.771-18.207 1.538-.001-2.727-.009-5.457.037-8.167zm34.198 103.583c-.258 1.766-.446 4.078-.724 6.54-1.073-.951-2.522-1.527-4.316-1.21-5.018.887-10.271.792-15.35.955-3.649.117-9.471-.497-12.642 1.701.385-5.363.599-10.791.716-16.255 3.021 3.696 11.864 2.609 15.978 2.758 3.975.143 13.428 2.07 17.135-.781-.257 2.099-.492 4.199-.797 6.292z"/>
</svg>
